<?xml version="1.0" encoding="utf-8"?>
<!-- Generator: Adobe Illustrator 25.2.1, SVG Export Plug-In . SVG Version: 6.00 Build 0)  -->
<svg version="1.1" id="Слой_1" xmlns="http://www.w3.org/2000/svg" xmlns:xlink="http://www.w3.org/1999/xlink" x="0px" y="0px"
	 viewBox="0 0 400 287.9" style="enable-background:new 0 0 400 287.9;" xml:space="preserve">
<style type="text/css">
	.st0{fill:none;}
	.st1{opacity:0.76;}
	.st2{fill:#EFEFFF;}
	.st3{opacity:0.48;fill:#E3E3FF;enable-background:new    ;}
	.st4{fill:#E3E3FF;}
	.st5{fill:#FCC400;}
	.st6{fill:#06005A;}
	.st7{fill:#1D1D1B;}
	.st8{fill:#B0B0B0;}
	.st9{fill:#13084A;}
	.st10{fill:#FFD43E;}
	.st11{fill:#EAB703;}
	.st12{fill:#FFFFFF;}
	.st13{fill:none;stroke:#FFFFFF;stroke-miterlimit:10;}
	.st14{fill:none;stroke:#FFFFFF;stroke-width:1;stroke-miterlimit:9.9999;}
	.st15{opacity:0.58;fill:#1D1D1B;enable-background:new    ;}
	.st16{fill:#E1DAEA;}
	.st17{fill:#EFE8F7;}
	.st18{fill:#CEC6DB;}
</style>
<g id="BACKGROUND">
	<rect y="0" class="st0" width="400" height="303.9"/>
</g>
<g id="OBJECTS">
	<g>
		<g>
			<g class="st1">
				<path class="st2" d="M220.4,261.5c-40-3.1-88.8-9.3-119.3-19.4c-25.1-8.3-45.3-25.8-58.1-44.5s-12.8-43.8,4.8-60
					c15.2-13.9,41.9-21.3,47.8-39c2.4-7.2,0.6-14.9,0.4-22.4c-0.7-25.5,19-50.7,48.4-61.9c18.5-7,42.2-8.2,58.5,1.6
					c10.3,6.2,16.5,15.8,26.6,22.1c12.8,7.9,30,9.5,45.7,13.2c16.2,3.8,31.8,10.3,42.5,20.5c10.7,10.2,15.7,24.6,10.3,37.1
					c-2.3,5.3-6.4,10.9-3.8,16.1c1.1,2.3,3.4,4.1,5.5,5.9c14.2,11.9,24.8,26.8,28.3,42.8s-0.6,33.4-13,46.5
					c-8.5,9-20.4,15.7-32.9,21.1C284.1,253.6,252.5,260.6,220.4,261.5"/>
			</g>
			<g>
				<path class="st3" d="M375.7,119.1c0-3.1-2.6-5.6-5.9-5.6c-1,0-1.9,0.2-2.7,0.6l-67.3-66.5c0.4-0.7,0.6-1.4,0.6-2.2
					c0-2.7-2.3-4.9-5.2-4.9c-2.3,0-4.2,1.4-4.9,3.3h-22.2c-2.6-1.6-12.9-7-28.1-0.8c-16.2,6.6-29.7,1.4-43.1,5.7
					c-1.8,0.6-2.5,2.8-1.2,4.2l19.2,21.2c-3.4,1.7-5.8,5.1-5.8,9c0,5.6,4.8,10.2,10.8,10.2c3.5,0,6.7-1.6,8.6-4.2l19.8,21.9
					c0.5,0.5,1.1,0.8,1.8,0.9c0.3,0,0.6,0.1,0.8,0c0.9-0.1,1.8-0.6,2.3-1.5c2.4-4.4,3.4-9.1,4.3-13.9c0.1-0.4,0.1-0.8,0.2-1.2
					c0.3-1.6,0.5-3.3,0.8-4.9c0.2-1.2,0.5-2.5,0.7-3.7c1.1-5,2.8-10.2,6.3-15.5v0c0.3-0.5,0.6-1,0.9-1.5c0.1-0.2,0.2-0.3,0.3-0.5
					c0.2-0.3,0.4-0.7,0.6-1c0.1-0.2,0.2-0.4,0.3-0.6c0.2-0.3,0.3-0.6,0.4-0.9c0.1-0.2,0.2-0.4,0.3-0.6c0.1-0.3,0.3-0.6,0.4-0.9
					c0.1-0.2,0.2-0.3,0.2-0.5c0.1-0.3,0.3-0.6,0.4-0.9c0.1-0.1,0.1-0.3,0.2-0.4c0.2-0.5,0.3-0.9,0.4-1.3c0,0,0,0,0,0
					c0.1-0.4,0.2-0.8,0.3-1.3c0-0.1,0.1-0.2,0.1-0.4c0.1-0.3,0.1-0.6,0.2-0.9c0-0.1,0.1-0.3,0.1-0.4c0.1-0.3,0.1-0.6,0.1-0.8
					c0-0.1,0-0.3,0.1-0.4c0-0.3,0.1-0.6,0.1-0.8c0-0.1,0-0.2,0-0.3c0-0.3,0.1-0.7,0.1-1c0,0,0-0.1,0-0.1c0-0.8,0-1.5,0-2.2
					c0,0,0-0.1,0-0.1c0-0.3,0-0.6-0.1-0.9c0,0,0-0.1,0-0.1c0-0.3-0.1-0.6-0.1-0.9c0,0,0-0.1,0-0.1c-0.2-1.7-0.6-3.2-1-4.3h20.4
					c0.7,1.9,2.6,3.3,4.9,3.3c0.8,0,1.5-0.2,2.2-0.5l67.3,66.5c-0.5,0.8-0.8,1.8-0.8,2.8c0,2.1,1.2,3.9,3,4.9l-31.1,130.3h-10.4
					c-1.1,0-2,0.8-2,1.9v0.4c0,1,0.9,1.9,2,1.9h9.4l-0.5,2.1l3.3,0.7l0.7-2.8h11.6c1.1,0,2-0.8,2-1.9v-0.4c0-1-0.9-1.9-2-1.9h-10.6
					l30.9-129.6C373.3,124.5,375.7,122.1,375.7,119.1z M219.9,92.3c-5.4,0-9.7-4.1-9.7-9.2c0-3.6,2.2-6.7,5.4-8.3l6.5,7.1l0.1,0.1
					l5.7,6.3C226.1,90.8,223.2,92.3,219.9,92.3z"/>
				<g>
					<g>
						<path class="st4" d="M190,89.2c-11.1,11.7-21.2,24.2-30.2,37.4c-9.1,13.3-17,27.2-23.8,41.6c-3.8,8.1-7.1,16.3-10.1,24.6
							c-0.3,0.8,1.1,1.1,1.4,0.3c5.3-14.8,11.9-29.3,19.6-43.2c7.7-13.8,16.5-27,26.4-39.5c5.6-7,11.5-13.9,17.7-20.4
							C191.7,89.4,190.6,88.5,190,89.2L190,89.2z"/>
					</g>
					<g>
						<path class="st4" d="M187.1,93.4c-1.7-5.3-1.3-11.1,1.4-16c2.7-4.8,8-8.4,13.7-8.9c5.8-0.5,11.8,2.4,14.4,7.3
							c0.3,0.6,0.6,1.3,0.6,2c0,0.7-0.3,1.3-0.6,1.9c-2.5,4.8-8.1,7.3-13.3,9.1C198.5,90.5,192.2,92.5,187.1,93.4"/>
					</g>
					<g>
						<path class="st4" d="M172.3,110.7c2.9-4.7,7.7-8.5,13.3-9.9c5.6-1.4,12-0.2,16.3,3.5c4.3,3.7,6.2,9.8,4.1,15
							c-0.3,0.6-0.6,1.3-1.1,1.8c-0.5,0.5-1.2,0.7-1.9,0.9c-5.4,1.5-11.1-0.6-16.1-3.1C182.3,116.6,176.4,113.6,172.3,110.7"/>
					</g>
					<g>
						<path class="st4" d="M139,161.5c2.6-4.1,6.7-7.4,11.6-8.6c4.9-1.2,10.4-0.2,14.1,3c3.7,3.2,5.4,8.6,3.6,13
							c-0.2,0.6-0.5,1.1-1,1.5c-0.5,0.4-1.1,0.6-1.7,0.8c-4.7,1.3-9.7-0.5-14-2.7C147.7,166.7,142.6,164,139,161.5"/>
					</g>
					<g>
						<path class="st4" d="M172.9,111.5c0.4-6-6.4-12.4-9.1-15.3c-2.6-2.9-4.8-6.5-4.3-10.3c0.3-2.6,1.8-4.9,3.4-7
							c1.8-2.2,4.1-4.4,7-4.4c3.3,0,5.9,2.8,7.2,5.6c2.4,4.9,2.7,10.7,1.6,16C177.7,101.6,175.4,106.6,172.9,111.5"/>
					</g>
					<g>
						<path class="st4" d="M153.5,137.7c0.4-6-6.4-12.4-9.1-15.3c-2.6-2.9-4.8-6.5-4.3-10.3c0.3-2.6,1.8-4.9,3.4-7
							c1.8-2.2,4.1-4.4,7-4.4c3.3,0,5.9,2.8,7.2,5.6c2.4,4.9,2.7,10.7,1.6,16C158.4,127.7,156.1,132.8,153.5,137.7"/>
					</g>
					<g>
						<path class="st4" d="M137.9,165.7c0.4-6-6.4-12.4-9.1-15.3c-2.6-2.9-4.8-6.5-4.3-10.3c0.3-2.6,1.8-4.9,3.4-7
							c1.8-2.2,4.1-4.4,7-4.4c3.3,0,5.9,2.8,7.2,5.6c2.4,4.9,2.7,10.7,1.6,16C142.7,155.7,140.4,160.8,137.9,165.7"/>
					</g>
					<g>
						<path class="st4" d="M186.3,133.7c-0.2-2.6-2.6-4.5-4.9-5.9c-2.2-1.3-4.6-2.4-7.2-2.5c-3.8-0.1-7.2,2.1-9.9,4.7
							c-2.3,2.3-7.1,7.6-12.3,9c0,0.4-0.1,0.7-0.2,1c4.4,1.6,9,2.9,13.6,3.3c5.4,0.5,11.1-0.2,15.8-2.7
							C184,139.1,186.6,136.6,186.3,133.7z"/>
					</g>
				</g>
				<g>
					<g>
						<path class="st4" d="M123.9,64.9c-0.9,6.3-1.2,12.6-1,18.9c0.2,6.4,0.9,12.7,2.2,19c0.7,3.5,1.6,7,2.6,10.4
							c0.1,0.3,0.6,0.1,0.5-0.2c-1.8-6.1-3.1-12.3-3.9-18.6c-0.8-6.2-1.1-12.5-0.8-18.8c0.1-3.5,0.5-7.1,0.9-10.6
							C124.5,64.6,124,64.5,123.9,64.9L123.9,64.9z"/>
					</g>
					<g>
						<path class="st4" d="M124,66.9c-1.8-1.4-3.1-3.4-3.4-5.6s0.6-4.5,2.4-5.9c1.8-1.4,4.5-1.8,6.5-0.7c0.3,0.1,0.5,0.3,0.7,0.5
							c0.2,0.2,0.2,0.5,0.3,0.8c0.3,2.1-0.9,4.2-2.2,5.9C127,63.5,125.4,65.5,124,66.9"/>
					</g>
					<g>
						<path class="st4" d="M123.2,75.8c-0.2-2.2,0.5-4.5,2-6.2c1.5-1.7,3.9-2.7,6.2-2.4c2.3,0.3,4.4,1.9,5,4.1
							c0.1,0.3,0.1,0.6,0.1,0.8c-0.1,0.3-0.2,0.5-0.4,0.7c-1.4,1.7-3.8,2.2-6.1,2.5C128,75.6,125.3,75.9,123.2,75.8"/>
					</g>
					<g>
						<path class="st4" d="M124.5,99.9c-0.2-1.9,0.4-3.9,1.8-5.4c1.3-1.5,3.4-2.3,5.4-2.1c2,0.2,3.9,1.7,4.3,3.5
							c0.1,0.2,0.1,0.5,0.1,0.7c-0.1,0.2-0.2,0.4-0.4,0.6c-1.2,1.4-3.3,1.9-5.3,2.2C128.6,99.7,126.3,100,124.5,99.9"/>
					</g>
					<g>
						<path class="st4" d="M123.6,76c-1.3-2.1-5.1-2.7-6.7-3.1c-1.6-0.4-3.2-1.1-3.9-2.5c-0.5-0.9-0.6-2-0.6-3
							c0.1-1.1,0.3-2.3,1.3-3c1.1-0.7,2.6-0.4,3.8,0.3c2,1.1,3.5,3,4.4,5C122.8,71.6,123.3,73.8,123.6,76"/>
					</g>
					<g>
						<path class="st4" d="M123.5,88.9c-1.3-2.1-5.1-2.7-6.7-3.1c-1.6-0.4-3.2-1.1-3.9-2.5c-0.5-0.9-0.6-2-0.6-3
							c0.1-1.1,0.3-2.3,1.3-3c1.1-0.7,2.6-0.4,3.8,0.3c2,1.1,3.5,3,4.4,5C122.7,84.5,123.2,86.7,123.5,88.9"/>
					</g>
					<g>
						<path class="st4" d="M125.1,101.5c-1.3-2.1-5.1-2.7-6.7-3.1c-1.6-0.4-3.2-1.1-3.9-2.5c-0.5-0.9-0.6-2-0.6-3
							c0.1-1.1,0.3-2.3,1.3-3c1.1-0.7,2.6-0.4,3.8,0.3c2,1.1,3.5,3,4.4,5C124.3,97.2,124.8,99.4,125.1,101.5"/>
					</g>
					<g>
						<path class="st4" d="M133.4,80.4c-0.7-0.8-1.9-0.9-3-0.9c-1,0-2.1,0.2-3,0.7c-1.3,0.8-1.9,2.3-2.1,3.7
							c-0.2,1.2-0.5,4.1-1.9,5.6c0.1,0.1,0.1,0.2,0.2,0.4c1.8-0.4,3.7-1,5.3-1.9c1.9-1,3.6-2.5,4.6-4.3
							C134,82.7,134.2,81.3,133.4,80.4z"/>
					</g>
				</g>
				<g>
					<g>
						<g>
							<path class="st5" d="M59.6,103.2c2.5,9,5.8,17.8,9.9,26.3c4,8.6,8.8,16.8,14.2,24.7c3,4.4,6.2,8.6,9.7,12.8
								c0.3,0.4,0.9-0.2,0.6-0.6c-6.1-7.3-11.5-15.1-16.3-23.2c-4.7-8.1-8.8-16.5-12.2-25.2c-1.9-4.9-3.6-9.9-5-15
								C60.2,102.4,59.4,102.7,59.6,103.2L59.6,103.2z"/>
						</g>
						<g>
							<path class="st5" d="M60.8,105.9c-3.3-0.9-6.3-3-7.9-5.8c-1.7-2.9-1.9-6.5-0.2-9.4c1.6-2.9,5.1-4.8,8.5-4.4
								c0.4,0,0.9,0.1,1.2,0.4c0.4,0.2,0.6,0.6,0.8,0.9c1.7,2.7,1.2,6.2,0.5,9.2C63,99.6,62,103.2,60.8,105.9"/>
						</g>
						<g>
							<path class="st5" d="M65.1,118.5c-1.5-2.9-2-6.4-0.9-9.5c1.1-3.1,3.8-5.7,7.1-6.5c3.3-0.8,7.2,0.3,9.2,2.9
								c0.3,0.3,0.5,0.7,0.6,1.1c0.1,0.4,0,0.8-0.1,1.2c-1,3-3.9,5.1-6.8,6.6C71.5,115.7,68,117.5,65.1,118.5"/>
						</g>
						<g>
							<path class="st6" d="M81,150.6c-1.3-2.5-1.7-5.6-0.8-8.2s3.3-5,6.2-5.7c2.9-0.7,6.2,0.2,8,2.5c0.2,0.3,0.4,0.6,0.5,1
								c0.1,0.3,0,0.7-0.1,1c-0.8,2.6-3.4,4.4-5.9,5.8C86.5,148.2,83.5,149.8,81,150.6"/>
						</g>
						<g>
							<path class="st5" d="M65.7,118.5c-3-2.2-8.6-1-11-0.7c-2.4,0.3-5,0.1-6.8-1.3c-1.3-1-2-2.4-2.6-3.9c-0.6-1.5-1-3.3,0-4.7
								c1.1-1.6,3.4-1.9,5.3-1.6c3.4,0.5,6.5,2.2,9,4.4C62.1,113,64,115.7,65.7,118.5"/>
						</g>
						<g>
							<path class="st5" d="M73.2,136c-3-2.2-8.6-1-11-0.7c-2.4,0.3-5,0.1-6.8-1.3c-1.3-1-2-2.4-2.6-3.9c-0.6-1.5-1-3.3,0-4.7
								c1.1-1.6,3.4-1.9,5.3-1.6c3.4,0.5,6.5,2.2,9,4.4C69.5,130.5,71.5,133.3,73.2,136"/>
						</g>
						<g>
							<path class="st5" d="M82.8,152.5c-3-2.2-8.6-1-11-0.7c-2.4,0.3-5,0.1-6.8-1.3c-1.3-1-2-2.4-2.6-3.9c-0.6-1.5-1-3.3,0-4.7
								c1.1-1.6,3.4-1.9,5.3-1.6c3.4,0.5,6.5,2.2,9,4.4C79.2,147,81.1,149.7,82.8,152.5"/>
						</g>
						<g>
							<path class="st5" d="M81.7,119.3c-1.4-0.7-3.2-0.2-4.7,0.4c-1.4,0.6-2.8,1.4-3.6,2.6c-1.3,1.8-1.2,4.1-0.7,6.2
								c0.4,1.8,1.7,5.8,0.7,8.7c0.2,0.1,0.3,0.3,0.5,0.4c2.2-1.6,4.4-3.3,6.1-5.4c2-2.4,3.5-5.3,3.7-8.3
								C83.9,122.2,83.4,120.1,81.7,119.3z"/>
						</g>
					</g>
					<g>
						<g>
							<path class="st5" d="M87.5,235.6c-15,0.3-30-4.1-42.2-12.4c-12.2-8.3-21.4-20.3-26-33.8c-1.9-5.8-3-12-1.8-18
								c1.3-6,5.3-11.7,11.2-14c4.3-1.7,9.2-1.6,13.6-0.2c4.4,1.3,8.4,3.8,11.9,6.6c10.5,8.4,21.5,23.9,26,36.1
								C84.7,212.1,87.5,225.3,87.5,235.6"/>
						</g>
						<g>
							<g>
								<path class="st6" d="M31,166c3.2,4.8,6.8,9.5,10.4,14c3.7,4.5,7.5,8.9,11.3,13.3c3.8,4.4,7.7,8.9,11.3,13.5
									c3.6,4.5,7,9.2,10.5,13.9c3.4,4.6,7,9.1,11,13.3c0.5,0.5,1,1,1.5,1.5c0.3,0.3,0.7-0.1,0.4-0.4c-4.2-4.1-7.8-8.6-11.3-13.2
									c-3.5-4.6-6.8-9.3-10.4-13.8c-3.6-4.6-7.4-9-11.2-13.4c-3.8-4.4-7.6-8.8-11.3-13.3c-3.7-4.5-7.3-9.1-10.6-13.9
									c-0.4-0.6-0.8-1.2-1.2-1.8C31.3,165.4,30.8,165.7,31,166L31,166z"/>
							</g>
							<g>
								<path class="st6" d="M37.1,200.8c4.8,2.6,9.5,5.2,14.2,7.8c4.3,2.3,8.7,4.6,13.2,6.6c2.9,1.3,5.9,2.6,8.8,3.7
									c0.4,0.1,0.5-0.4,0.2-0.6c-5-2-10-4.2-14.8-6.6c-4.4-2.2-8.7-4.6-13.1-7c-2.8-1.5-5.5-3-8.3-4.5
									C37.1,200.1,36.8,200.6,37.1,200.8L37.1,200.8z"/>
							</g>
							<g>
								<path class="st6" d="M56.5,196.7c-1.7-6.3-3-12.7-4.1-19.1c-0.3-1.7-0.5-3.4-0.8-5c-0.1-0.4-0.7-0.4-0.6,0
									c0.9,6.5,2.1,12.9,3.6,19.3c0.4,1.7,0.8,3.4,1.3,5C56,197.3,56.6,197.1,56.5,196.7L56.5,196.7z"/>
							</g>
						</g>
					</g>
					<g>
						<g>
							<path class="st7" d="M81,242.7c-8.5,6.5-19.3,10.4-30.2,10.8c-10.9,0.4-22-2.6-31-8.5c-3.9-2.5-7.4-5.7-9.5-9.6
								c-2.1-4-2.5-8.9-0.2-12.8c1.7-2.8,4.6-4.8,7.7-5.9c3.2-1.1,6.6-1.4,10-1.2c10,0.4,23.7,4.7,32.1,9.8
								C68.3,230.4,76.1,236.8,81,242.7"/>
						</g>
						<g>
							<g>
								<path class="st8" d="M15.5,226.5c4.1,1.4,8.4,2.6,12.6,3.6c4.3,1,8.5,2,12.8,2.9c4.3,0.9,8.6,1.9,12.9,3
									c4.2,1.1,8.4,2.4,12.6,3.6c4.2,1.2,8.4,2.3,12.6,3c0.5,0.1,1.1,0.2,1.6,0.2c0.3,0,0.4-0.4,0.1-0.4
									c-4.3-0.6-8.5-1.6-12.7-2.8s-8.3-2.5-12.5-3.6c-4.2-1.1-8.5-2.1-12.8-3c-4.3-0.9-8.6-1.9-12.8-2.9c-4.3-1-8.5-2.1-12.7-3.5
									c-0.5-0.2-1-0.3-1.5-0.5C15.4,226,15.2,226.4,15.5,226.5L15.5,226.5z"/>
							</g>
							<g>
								<path class="st8" d="M35.5,244c4-0.5,7.9-1,11.9-1.5c3.6-0.5,7.2-1.1,10.8-1.8c2.3-0.5,4.6-1,6.8-1.6
									c0.3-0.1,0.1-0.5-0.2-0.4c-3.8,1-7.7,1.8-11.6,2.5c-3.6,0.6-7.2,1.1-10.8,1.5c-2.3,0.3-4.6,0.6-6.9,0.9
									C35.1,243.6,35.2,244.1,35.5,244L35.5,244z"/>
							</g>
							<g>
								<path class="st8" d="M44.7,233.5c-4-2.9-7.8-6-11.4-9.3c-1-0.8-1.9-1.7-2.8-2.6c-0.2-0.2-0.6,0.1-0.4,0.3
									c3.6,3.4,7.3,6.5,11.2,9.6c1,0.8,2.1,1.6,3.1,2.4C44.7,234,45,233.7,44.7,233.5L44.7,233.5z"/>
							</g>
						</g>
					</g>
				</g>
				<g>
					<g>
						<g>
							<path class="st7" d="M329,127.8c-6.6,6.9-12.6,14.4-17.9,22.2c-5.4,7.9-10.1,16.1-14.1,24.7c-2.2,4.8-4.2,9.7-6,14.6
								c-0.2,0.5,0.7,0.7,0.8,0.2c3.2-8.8,7.1-17.4,11.7-25.6c4.6-8.2,9.8-16,15.7-23.4c3.3-4.2,6.8-8.2,10.5-12.1
								C330,128,329.4,127.4,329,127.8L329,127.8z"/>
						</g>
						<g>
							<path class="st7" d="M327.3,130.3c-1-3.1-0.8-6.6,0.8-9.5c1.6-2.9,4.7-5,8.2-5.3c3.4-0.3,7,1.4,8.5,4.4
								c0.2,0.4,0.4,0.8,0.4,1.2c0,0.4-0.2,0.8-0.4,1.1c-1.5,2.8-4.8,4.3-7.9,5.4C334,128.6,330.3,129.7,327.3,130.3"/>
						</g>
						<g>
							<path class="st7" d="M318.5,140.6c1.7-2.8,4.6-5,7.9-5.9c3.3-0.8,7.1-0.1,9.7,2.1c2.6,2.2,3.7,5.8,2.5,8.9
								c-0.2,0.4-0.3,0.8-0.7,1c-0.3,0.3-0.7,0.4-1.1,0.5c-3.2,0.9-6.6-0.4-9.6-1.8C324.4,144.1,321,142.3,318.5,140.6"/>
						</g>
						<g>
							<path class="st6" d="M298.7,170.7c1.5-2.4,4-4.4,6.9-5.1c2.9-0.7,6.2-0.1,8.4,1.8c2.2,1.9,3.2,5.1,2.1,7.7
								c-0.1,0.3-0.3,0.7-0.6,0.9c-0.3,0.2-0.6,0.4-1,0.5c-2.8,0.8-5.8-0.3-8.3-1.6C303.9,173.8,300.8,172.2,298.7,170.7"/>
						</g>
						<g>
							<path class="st7" d="M318.8,141.1c0.3-3.6-3.8-7.4-5.4-9.1c-1.6-1.7-2.8-3.9-2.6-6.1c0.2-1.5,1-2.9,2-4.1
								c1-1.3,2.4-2.6,4.2-2.6c2,0,3.5,1.6,4.3,3.3c1.4,2.9,1.6,6.3,1,9.5C321.7,135.1,320.3,138.2,318.8,141.1"/>
						</g>
						<g>
							<path class="st7" d="M307.4,156.6c0.3-3.6-3.8-7.4-5.4-9.1c-1.6-1.7-2.8-3.9-2.6-6.1c0.2-1.5,1-2.9,2-4.1
								c1-1.3,2.4-2.6,4.2-2.6c2,0,3.5,1.6,4.3,3.3c1.4,2.9,1.6,6.3,1,9.5C310.2,150.7,308.9,153.7,307.4,156.6"/>
						</g>
						<g>
							<path class="st6" d="M298.1,173.2c0.3-3.6-3.8-7.4-5.4-9.1c-1.6-1.7-2.8-3.9-2.6-6.1c0.2-1.5,1-2.9,2-4.1
								c1-1.3,2.4-2.6,4.2-2.6c2,0,3.5,1.6,4.3,3.3c1.4,2.9,1.6,6.3,1,9.5C300.9,167.3,299.6,170.3,298.1,173.2"/>
						</g>
						<g>
							<path class="st7" d="M326.8,154.2c-0.1-1.5-1.5-2.7-2.9-3.5c-1.3-0.8-2.7-1.4-4.3-1.5c-2.2,0-4.3,1.2-5.9,2.8
								c-1.4,1.3-4.2,4.5-7.3,5.3c0,0.2-0.1,0.4-0.1,0.6c2.6,0.9,5.3,1.7,8.1,2c3.2,0.3,6.6-0.1,9.4-1.6
								C325.5,157.5,327,156,326.8,154.2z"/>
						</g>
					</g>
					<g>
						<g>
							<path class="st7" d="M319.2,232.5c1.4-10.3,6.4-20.1,14-27.5s17.8-12.5,28.6-14.1c4.6-0.7,9.5-0.8,13.9,0.8
								c4.4,1.5,8.3,4.9,9.5,9.2c0.8,3.1,0.2,6.5-1.3,9.3c-1.5,2.9-3.8,5.3-6.4,7.4c-7.5,6.3-20.5,12.1-30.4,13.8
								C337.3,233.2,327,233.7,319.2,232.5"/>
						</g>
						<g>
							<g>
								<path class="st8" d="M378.4,201.5c-4,1.7-7.9,3.6-11.8,5.6c-3.8,2-7.6,4.1-11.4,6.3c-3.8,2.1-7.6,4.3-11.5,6.3
									c-3.8,2-7.8,3.8-11.7,5.6c-3.9,1.9-7.7,3.8-11.3,6.1c-0.4,0.3-0.9,0.6-1.3,0.9c-0.2,0.2,0,0.5,0.3,0.4
									c3.6-2.4,7.4-4.4,11.3-6.3c3.9-1.9,7.8-3.7,11.7-5.6c3.9-2,7.7-4,11.5-6.2c3.8-2.1,7.5-4.2,11.4-6.3c3.8-2.1,7.7-4,11.7-5.7
									c0.5-0.2,1-0.4,1.5-0.6C378.8,201.8,378.6,201.4,378.4,201.5L378.4,201.5z"/>
							</g>
							<g>
								<path class="st8" d="M351.2,201.9c-2.5,3-5,5.9-7.5,8.9c-2.3,2.7-4.4,5.5-6.5,8.3c-1.3,1.8-2.6,3.7-3.8,5.6
									c-0.2,0.2,0.3,0.4,0.4,0.2c2.1-3.2,4.3-6.4,6.6-9.4c2.2-2.8,4.4-5.5,6.7-8.2c1.5-1.7,2.9-3.5,4.4-5.2
									C351.7,201.9,351.3,201.7,351.2,201.9L351.2,201.9z"/>
							</g>
							<g>
								<path class="st8" d="M352.1,215.6c5-0.5,10-0.7,15-0.7c1.3,0,2.6,0,3.9,0c0.3,0,0.4-0.4,0.1-0.4c-5-0.1-10.1,0-15.1,0.4
									c-1.3,0.1-2.7,0.2-4,0.3C351.8,215.2,351.8,215.6,352.1,215.6L352.1,215.6z"/>
							</g>
						</g>
					</g>
				</g>
				<g>
					<g>
						<path class="st7" d="M9.6,272.1c3.1,0,6.2,0,9.2,0c8.3,0,16.6,0,24.9,0c12.3,0,24.6,0,36.9,0c15,0,30,0,45,0
							c16.4,0,32.8,0,49.2,0c16.7,0,33.3,0,50,0c15.4,0,30.8,0,46.3,0c13.1,0,26.2,0,39.2,0c9.4,0,18.8,0,28.2,0
							c4.4,0,8.9,0.1,13.3,0c0.2,0,0.4,0,0.6,0c1.4,0,1.4-1.9,0-1.9c-3.1,0-6.2,0-9.2,0c-8.3,0-16.6,0-24.9,0c-12.3,0-24.6,0-36.9,0
							c-15,0-30,0-45,0c-16.4,0-32.8,0-49.2,0c-16.7,0-33.3,0-50,0c-15.4,0-30.8,0-46.3,0c-13.1,0-26.2,0-39.2,0
							c-9.4,0-18.8,0-28.2,0c-4.4,0-8.9-0.1-13.3,0c-0.2,0-0.4,0-0.6,0C8.2,270.1,8.2,272.1,9.6,272.1L9.6,272.1z"/>
					</g>
					<g>
						<path class="st9" d="M365.6,272.1c3,0,6.1,0,9.1,0c4.8,0,9.7,0,14.5,0c1.1,0,2.2,0,3.3,0c1.2,0,1.2-1.9,0-1.9
							c-3,0-6.1,0-9.1,0c-4.8,0-9.7,0-14.5,0c-1.1,0-2.2,0-3.3,0C364.4,270.1,364.4,272.1,365.6,272.1L365.6,272.1z"/>
					</g>
				</g>
				<g>
					<g>
						<g>
							<g>
								<polygon class="st4" points="354.9,250.8 351.6,250.1 385.2,109.2 311.7,36.5 282.1,36.5 282.1,33.4 313.2,33.4 313.7,33.9 
									388.9,108.2 								"/>
							</g>
						</g>
						<g>
							<path class="st5" d="M392.9,108.7c0,3.1-2.6,5.6-5.9,5.6c-3.3,0-5.9-2.5-5.9-5.6c0-3.1,2.6-5.6,5.9-5.6
								C390.3,103.1,392.9,105.6,392.9,108.7z"/>
						</g>
						<g>
							<path class="st5" d="M317.6,35c0,2.7-2.3,4.9-5.2,4.9c-2.9,0-5.2-2.2-5.2-4.9c0-2.7,2.3-4.9,5.2-4.9
								C315.3,30,317.6,32.2,317.6,35z"/>
						</g>
					</g>
					<g>
						<g>
							<path class="st10" d="M237.2,82.9c-5.9,0-10.8-4.6-10.8-10.2c0-5.6,4.8-10.2,10.8-10.2c5.9,0,10.7,4.6,10.7,10.2
								C247.9,78.3,243.1,82.9,237.2,82.9z M237.2,63.5c-5.4,0-9.7,4.1-9.7,9.2c0,5.1,4.4,9.2,9.7,9.2c5.4,0,9.7-4.1,9.7-9.2
								C246.9,67.6,242.5,63.5,237.2,63.5z"/>
						</g>
						<g>
							<g>
								<path class="st5" d="M282.8,60.8c9.7-14.6,3.8-25.8,3.1-27l0,0c0,0,0,0-0.1,0c0,0,0-0.1,0-0.1l0,0c-1.1-0.8-11.9-8-28.6-1.2
									c-16.2,6.6-29.7,1.4-43.1,5.7c-1.8,0.6-2.5,2.8-1.2,4.2l26.4,29.1l0.1,0.1l26.2,28.9c1.4,1.5,3.9,1.2,4.9-0.5
									C276.8,88.2,273.5,74.9,282.8,60.8z"/>
							</g>
							<g>
								<path class="st11" d="M280.7,48.9c-1.8,3-3.2,6.2-5.3,9c-3.8,5.3-9.2,8.5-16,9.3c-8.9,1-16.4-3.9-23.8-7.8
									c-4.9-2.7-9.8-5.5-14.7-8.1l18.4,20.3l0.1,0.1l26.2,28.9c1.4,1.5,3.9,1.2,4.9-0.5c6.3-11.9,3.1-25.2,12.4-39.3
									c5.7-8.6,6-15.9,5.1-20.8C286,43.3,282.7,45.5,280.7,48.9z"/>
							</g>
						</g>
					</g>
					<g>
						<path class="st5" d="M367.1,248h-24.4c-1.1,0-2-0.8-2-1.9v-0.4c0-1,0.9-1.9,2-1.9h24.4c1.1,0,2,0.8,2,1.9v0.4
							C369.1,247.1,368.2,248,367.1,248z"/>
					</g>
				</g>
				<g>
					<path class="st7" d="M195.4,249.4l-20.4,3c-1.9,0.3-3.7-0.9-4-2.8l-21.1-128.2c-0.3-1.8,1-3.5,2.9-3.8l20.4-3
						c1.9-0.3,3.7,0.9,4,2.8l21.1,128.2C198.6,247.5,197.3,249.1,195.4,249.4z"/>
					<polygon class="st7" points="168.6,234.9 195.8,230.8 196,232.1 168.8,236.1 					"/>
					<polygon class="st7" points="166.5,222.7 193.8,218.7 194,219.9 166.7,223.9 					"/>
					<polygon class="st7" points="154.3,148.4 181.6,144.3 181.8,145.6 154.5,149.6 					"/>
					<polygon class="st7" points="152.3,136.2 179.6,132.1 179.8,133.4 152.5,137.4 					"/>
				</g>
				<g>
					<g>
						<g>
							<path class="st7" d="M110.2,248H79.2c-1.9,0-3.5-1.5-3.5-3.3V114.9c0-1.8,1.6-3.3,3.5-3.3h31.1c1.9,0,3.5,1.5,3.5,3.3v129.7
								C113.7,246.5,112.2,248,110.2,248z"/>
							<rect x="75.7" y="229.7" class="st12" width="38" height="1.2"/>
							<rect x="75.7" y="217.3" class="st12" width="38" height="1.2"/>
							<rect x="75.7" y="142.1" class="st12" width="38" height="1.2"/>
							<rect x="75.7" y="129.8" class="st12" width="38" height="1.2"/>
							<ellipse class="st13" cx="95.6" cy="182.8" rx="12.9" ry="12.2"/>
						</g>
						<polygon class="st7" points="113.7,114.9 102.3,247.1 102.3,248 111.1,248 113,246.7 113.7,245.3 						"/>
					</g>
					<g>
						<g>
							<path class="st7" d="M227.5,248h-25.8c-1.9,0-3.5-1.5-3.5-3.3V114.9c0-1.8,1.6-3.3,3.5-3.3h25.8c1.9,0,3.5,1.5,3.5,3.3v129.7
								C231,246.5,229.5,248,227.5,248z"/>
							<rect x="198.2" y="229.7" class="st12" width="32.8" height="1.2"/>
							<rect x="198.2" y="217.3" class="st12" width="32.8" height="1.2"/>
							<rect x="198.2" y="142.1" class="st12" width="32.8" height="1.2"/>
							<rect x="198.2" y="129.8" class="st12" width="32.8" height="1.2"/>
							<ellipse class="st14" cx="215.4" cy="184.5" rx="11.1" ry="10.5"/>
						</g>
						<polygon class="st7" points="231,114.9 219.6,247.1 219.6,248 228.4,248 230.3,246.7 230.9,245.3 						"/>
					</g>
					<g>
						<g>
							<path class="st5" d="M148.3,248h-31.1c-1.9,0-3.5-1.5-3.5-3.3V99.8c0-1.8,1.6-3.3,3.5-3.3h31.1c1.9,0,3.5,1.5,3.5,3.3v144.9
								C151.7,246.5,150.2,248,148.3,248z"/>
							<rect x="113.7" y="227.6" class="st12" width="38" height="1.4"/>
							<rect x="113.7" y="213.9" class="st12" width="38" height="1.4"/>
							<rect x="113.7" y="130.4" class="st12" width="38" height="1.4"/>
							<rect x="113.7" y="116.7" class="st12" width="38" height="1.4"/>
							<ellipse class="st13" cx="133.6" cy="175.6" rx="12.9" ry="13.6"/>
						</g>
						<polygon class="st11" points="152.3,99.9 133.4,247 133.4,248 148,248 151,246.5 152.1,245 						"/>
					</g>
					<polygon class="st15" points="180.1,135.2 191.3,250 197.7,248 198.3,245.6 					"/>
					<g>
						<g>
							<path class="st5" d="M275.1,249.1l-19.4,2.7c-1.9,0.3-3.7-1-3.9-2.8l-22.3-143.3c-0.3-1.8,1-3.5,2.9-3.7l19.4-2.7
								c1.9-0.3,3.7,1,3.9,2.8L278,245.4C278.3,247.2,277,248.9,275.1,249.1z"/>
							<polygon class="st12" points="249.1,232.2 275.4,228.6 275.6,229.9 249.3,233.6 							"/>
							<polygon class="st12" points="247,218.7 273.3,215 273.5,216.4 247.2,220 							"/>
							<polygon class="st12" points="232.1,122.4 258.4,118.8 258.6,120.1 232.3,123.8 							"/>
						</g>
						<polygon class="st11" points="257.8,115.5 265.8,248 279,249.7 						"/>
					</g>
					<g>
						<g>
							<path class="st7" d="M303.4,249.4l-20.4,3c-1.9,0.3-3.7-0.9-4-2.8L258,121.5c-0.3-1.8,1-3.5,2.9-3.8l20.4-3
								c1.9-0.3,3.7,0.9,4,2.8l21.1,128.2C306.6,247.5,305.3,249.1,303.4,249.4z"/>
							<polygon class="st12" points="276.6,234.9 303.9,230.9 304.1,232.1 276.8,236.1 							"/>
							<polygon class="st12" points="274.6,222.7 301.9,218.7 302.1,219.9 274.8,223.9 							"/>
							<polygon class="st12" points="262.4,148.4 289.6,144.4 289.8,145.6 262.6,149.6 							"/>
							<polygon class="st12" points="260.4,136.2 287.6,132.2 287.8,133.4 260.6,137.4 							"/>
						</g>
						<polygon class="st15" points="288.3,140.2 297.2,249.7 307.3,249.7 						"/>
					</g>
					<g>
						<g>
							<path class="st5" d="M331.6,249.4l-20.4,3c-1.9,0.3-3.7-0.9-4-2.8l-16.9-102.9c-0.3-1.8,1-3.5,2.9-3.8l20.4-3
								c1.9-0.3,3.7,0.9,4,2.8l16.9,102.9C334.8,247.5,333.5,249.1,331.6,249.4z"/>
							<polygon class="st12" points="305.4,238.3 332.7,234.3 332.8,235.3 305.5,239.3 							"/>
							<polygon class="st12" points="303.7,228.4 331,224.3 331.2,225.3 303.9,229.4 							"/>
							<polygon class="st12" points="293.8,168 321.1,164 321.3,165 294,169 							"/>
							<polygon class="st12" points="292.2,158.1 319.5,154.1 319.6,155.1 292.4,159.1 							"/>
						</g>
						<polyline class="st11" points="290.3,146.8 320.4,249.7 307.3,249.7 						"/>
					</g>
				</g>
				<path class="st7" d="M373,264.5H35.6c-4.8,0-8.7-3.7-8.7-8.3l0,0c0-4.6,3.9-8.3,8.7-8.3H373c4.8,0,8.7,3.7,8.7,8.3l0,0
					C381.7,260.8,377.8,264.5,373,264.5z"/>
				<g>
					<g>
						<path d="M252.7,282.1c0,0-39.8-21.8-89.5-9.8c0,0-9.9,2.5-11.3-7.9c0,0-24.9-45.9-53.5-62.9l8.9-6.3l92.4-25.6
							c0,0,37.5,20.6,47.8,47.2c0,0,62.9,1.8,89.2,14.1l11.4,3.1L252.7,282.1z"/>
						<path class="st16" d="M101,193.4l10.1-7.4c0,0,41.9,24.9,55.6,64.9c0,0,50-13.3,86,5.3l86.6-40l0.5,15.4l-86.8,42.6
							c0,0-34.1-16.5-84-10.9c0,0-8.5,5.1-11.7-4.2C157.2,259.1,135.7,215,101,193.4z"/>
						<path class="st17" d="M111,186.1l95.2-20.2c0,0,35.6,34.4,41.3,51c0,0,47.1-7.1,91.6-0.6l-86.6,40c0,0-27-13.3-86-5.3
							C166.6,250.9,137.2,201.9,111,186.1z"/>
						<path class="st16" d="M132.4,181.3l-7.4,1.6c0,0,34.1,39.1,41.5,68l21-18.6"/>
						<path class="st17" d="M167.2,249.4c0,0-9.1-51.6-43.8-74.8l97.5-18.9c0,0,21.7,21.5,26.7,61L167.2,249.4z"/>
						<path class="st16" d="M323.3,214.5l7.6,0.6l-76,36.3c0,0-37.7-7.3-60.8-4.1c-23.1,3.2,0,0,0,0"/>
						<path class="st17" d="M166.6,250.9l81-34.1c0,0,56.7-11.9,87.3-5.3L253.1,250C253.1,250,219.4,241.6,166.6,250.9z"/>
						<polygon class="st16" points="166.6,250.9 252.8,215.8 247.6,216.8 167.2,249.4 						"/>
					</g>
					<g>
						<g>
							<path class="st16" d="M247.4,219.3c4.4,0.2,8.8-0.5,13.2-1.1c2.2-0.3,4.5-0.6,6.7-0.8c2.3-0.2,4.5-0.2,6.8-0.3
								c4.6-0.1,9.1-0.5,13.6-1c4.5-0.4,9.1-0.7,13.7-0.7c5.2,0,10.3,0.2,15.5,0.8c0.5,0,0.5-0.7,0-0.7c-9.1-1-18.3-1-27.5-0.2
								c-4.5,0.4-9.1,0.9-13.6,1.1c-2.2,0.1-4.5,0.1-6.7,0.2c-2.2,0.1-4.4,0.4-6.6,0.7c-5,0.7-10,1.5-15,1.4
								C246.8,218.5,246.8,219.3,247.4,219.3L247.4,219.3z"/>
						</g>
						<g>
							<path class="st16" d="M240.6,222.7c3.9,0,7.8-0.1,11.8-0.3c3.9-0.2,7.7-0.2,11.6-0.3c7.8-0.1,15.6-0.4,23.3-0.5
								c4.4,0,8.8,0.1,13.2,0.2c0.5,0,0.5-0.7,0-0.7c-7.8-0.3-15.6-0.3-23.4-0.1c-3.9,0.1-7.8,0.2-11.7,0.3c-3.9,0-7.7,0.1-11.6,0.2
								c-4.4,0.2-8.8,0.4-13.2,0.4C240.1,221.9,240.1,222.6,240.6,222.7L240.6,222.7z"/>
						</g>
						<g>
							<path class="st16" d="M233.6,226.9c3.7,0.2,7.5,0.1,11.2,0c3.7-0.1,7.4,0,11.2,0c7.4,0.2,14.9,0,22.3,0.2
								c4.2,0.1,8.4,0.4,12.6,0.7c0.5,0,0.5-0.7,0-0.7c-7.4-0.6-14.9-0.8-22.3-0.8c-3.7,0-7.4,0-11.1,0c-3.7-0.1-7.4-0.2-11.2-0.1
								c-4.2,0.1-8.4,0.2-12.6,0C233.1,226.2,233.1,226.9,233.6,226.9L233.6,226.9z"/>
						</g>
						<g>
							<path class="st16" d="M221.7,232.6c3.7,0.2,7.5,0.1,11.2,0c3.7-0.1,7.4,0,11.2,0c7.4,0.2,14.9,0,22.3,0.2
								c4.2,0.1,8.4,0.4,12.6,0.7c0.5,0,0.5-0.7,0-0.7c-7.4-0.6-14.9-0.8-22.3-0.8c-3.7,0-7.4,0-11.1,0c-3.7-0.1-7.4-0.2-11.2-0.1
								c-4.2,0.1-8.4,0.2-12.6,0C221.2,231.8,221.2,232.5,221.7,232.6L221.7,232.6z"/>
						</g>
						<g>
							<path class="st16" d="M205.8,239c3.7,0.2,7.5,0.1,11.2,0c3.7-0.1,7.4,0,11.2,0c7.4,0.2,14.9,0,22.3,0.2
								c4.2,0.1,8.4,0.4,12.6,0.7c0.5,0,0.5-0.7,0-0.7c-7.4-0.6-14.9-0.8-22.3-0.8c-3.7,0-7.4,0-11.1,0c-3.7-0.1-7.4-0.2-11.2-0.1
								c-4.2,0.1-8.4,0.2-12.6,0C205.3,238.3,205.3,239,205.8,239L205.8,239z"/>
						</g>
						<g>
							<path class="st16" d="M193.1,243.8c3.7,0.2,7.5,0.1,11.2,0c3.7-0.1,7.4,0,11.2,0c7.4,0.2,14.9,0,22.3,0.2
								c4.2,0.1,8.4,0.4,12.6,0.7c0.5,0,0.5-0.7,0-0.7c-7.4-0.6-14.9-0.8-22.3-0.8c-3.7,0-7.4,0-11.1,0c-3.7-0.1-7.4-0.2-11.2-0.1
								c-4.2,0.1-8.4,0.2-12.6,0C192.6,243,192.6,243.8,193.1,243.8L193.1,243.8z"/>
						</g>
					</g>
					<g>
						<g>
							<path class="st16" d="M241.4,212.8c-2.1-3-3.4-6.4-4.7-9.7c-0.7-1.7-1.4-3.4-2.2-5.1c-0.8-1.7-1.8-3.3-2.7-4.9
								c-1.9-3.2-3.4-6.6-5-9.9s-3.3-6.7-5.2-9.8c-2.2-3.6-4.7-7.1-7.4-10.3c-0.3-0.3,0.4-0.7,0.7-0.4c4.8,5.8,8.9,12.2,12.1,19
								c1.6,3.4,3.1,6.8,4.9,10c0.9,1.6,1.9,3.2,2.7,4.8c0.9,1.6,1.6,3.2,2.2,4.9c1.5,3.8,2.9,7.7,5.3,11.1
								C242.3,212.8,241.6,213.2,241.4,212.8L241.4,212.8z"/>
						</g>
						<g>
							<path class="st16" d="M235,215.5c-2.1-3-3.4-6.4-4.7-9.7c-0.7-1.7-1.4-3.4-2.2-5.1c-0.8-1.7-1.8-3.3-2.7-4.9
								c-1.9-3.2-3.4-6.6-5-9.9c-1.6-3.4-3.3-6.7-5.2-9.8c-2.2-3.6-4.7-7.1-7.4-10.3c-0.3-0.3,0.4-0.7,0.7-0.4
								c4.8,5.8,8.9,12.2,12.1,19c1.6,3.3,3.1,6.8,4.9,10c0.9,1.6,1.9,3.2,2.7,4.8c0.9,1.6,1.6,3.2,2.2,4.9
								c1.5,3.8,2.9,7.7,5.3,11.1C236,215.5,235.3,215.9,235,215.5L235,215.5z"/>
						</g>
						<g>
							<path class="st16" d="M227.2,218.2c-2.1-3-3.4-6.4-4.7-9.7c-0.7-1.7-1.4-3.4-2.2-5.1c-0.8-1.7-1.8-3.3-2.7-4.9
								c-1.9-3.2-3.4-6.6-5-9.9c-1.6-3.4-3.3-6.7-5.2-9.8c-2.2-3.6-4.7-7.1-7.4-10.3c-0.3-0.3,0.4-0.7,0.7-0.4
								c4.8,5.8,8.9,12.2,12.1,19c1.6,3.4,3.1,6.8,4.9,10c0.9,1.6,1.9,3.2,2.7,4.8c0.9,1.6,1.6,3.2,2.2,4.9
								c1.5,3.8,2.9,7.7,5.3,11.1C228.1,218.1,227.4,218.5,227.2,218.2L227.2,218.2z"/>
						</g>
						<g>
							<path class="st16" d="M219.6,221.3c-2.1-3-3.4-6.4-4.7-9.7c-0.7-1.7-1.4-3.4-2.2-5.1c-0.8-1.7-1.8-3.3-2.7-4.9
								c-1.9-3.2-3.4-6.6-5-9.9c-1.6-3.4-3.3-6.7-5.2-9.8c-2.2-3.6-4.7-7.1-7.4-10.3c-0.3-0.3,0.4-0.7,0.7-0.4
								c4.8,5.8,8.9,12.2,12.1,19c1.6,3.3,3.1,6.8,4.9,10c0.9,1.6,1.9,3.2,2.7,4.8c0.9,1.6,1.6,3.2,2.2,4.9
								c1.5,3.8,2.9,7.7,5.3,11.1C220.5,221.3,219.8,221.6,219.6,221.3L219.6,221.3z"/>
						</g>
						<g>
							<path class="st16" d="M210.2,223.3c-2.1-3-3.4-6.4-4.7-9.7c-0.7-1.7-1.4-3.4-2.2-5.1c-0.8-1.7-1.8-3.3-2.7-4.9
								c-1.9-3.2-3.4-6.6-5-9.9c-1.6-3.4-3.3-6.7-5.2-9.8c-2.2-3.6-4.7-7.1-7.4-10.3c-0.3-0.3,0.4-0.7,0.7-0.4
								c4.8,5.8,8.9,12.2,12.1,19c1.6,3.3,3.1,6.8,4.9,10c0.9,1.6,1.9,3.2,2.7,4.8c0.9,1.6,1.6,3.2,2.2,4.9
								c1.5,3.8,2.9,7.7,5.3,11.1C211.1,223.3,210.4,223.6,210.2,223.3L210.2,223.3z"/>
						</g>
						<g>
							<path class="st16" d="M200.3,225.8c-2.1-3-3.4-6.4-4.7-9.7c-0.7-1.7-1.4-3.4-2.2-5.1c-0.8-1.7-1.8-3.3-2.7-4.9
								c-1.9-3.2-3.4-6.6-5-9.9c-1.6-3.4-3.3-6.7-5.2-9.8c-2.2-3.6-4.7-7.1-7.4-10.3c-0.3-0.3,0.4-0.7,0.7-0.4
								c4.8,5.8,8.9,12.2,12.1,19c1.6,3.4,3.1,6.8,4.9,10c0.9,1.6,1.9,3.2,2.7,4.8c0.9,1.6,1.6,3.2,2.2,4.9
								c1.5,3.8,2.9,7.7,5.3,11.1C201.2,225.8,200.5,226.2,200.3,225.8L200.3,225.8z"/>
						</g>
						<g>
							<path class="st16" d="M192.2,231.9c-2.2-3.3-3.7-6.9-5.2-10.5c-0.8-1.9-1.5-3.7-2.4-5.5c-0.9-1.8-1.9-3.5-3-5.3
								c-2.1-3.5-3.8-7.1-5.5-10.8c-1.8-3.6-3.6-7.2-5.8-10.7c-2.4-3.9-5.1-7.7-8-11.3c-0.3-0.3,0.4-0.7,0.7-0.4
								c5.2,6.4,9.6,13.3,13.1,20.7c1.8,3.6,3.4,7.3,5.4,10.8c1,1.7,2,3.4,3,5.2c0.9,1.7,1.7,3.5,2.5,5.3c1.7,4.1,3.3,8.3,5.8,12
								C193.1,231.8,192.4,232.2,192.2,231.9L192.2,231.9z"/>
						</g>
						<g>
							<path class="st16" d="M179.4,235.4c-2.3-3.4-3.9-7.1-5.4-10.9c-0.8-1.9-1.6-3.8-2.5-5.7c-0.9-1.9-2-3.7-3.1-5.4
								c-2.1-3.6-3.9-7.4-5.8-11.1c-1.8-3.8-3.8-7.5-6-11c-2.5-4.1-5.2-8-8.3-11.7c-0.3-0.4,0.4-0.7,0.7-0.4
								c5.3,6.6,9.9,13.8,13.6,21.4c1.8,3.7,3.6,7.5,5.7,11.2c1,1.8,2.1,3.5,3.1,5.4c1,1.8,1.8,3.6,2.6,5.5
								c1.8,4.2,3.4,8.6,6.1,12.4C180.3,235.4,179.6,235.8,179.4,235.4L179.4,235.4z"/>
						</g>
					</g>
					<g>
						<path class="st18" d="M251.2,265.8c-33.7-14.6-79.7-8.4-80.1-8.4l-0.1-0.9c0.5-0.1,46.8-6.3,80.7,8.4L251.2,265.8z"/>
					</g>
					<path class="st11" d="M248.2,216.4c0,0-25.3,10.5-53.1,21.8s-32.4,21-43.3,37.5l6.8-2.4l2.5,3.5c0,0,9-17.4,19.1-23.2
						c10.1-5.8,82.3-39.4,82.3-39.4L248.2,216.4z"/>
				</g>
			</g>
		</g>
	</g>
</g>
</svg>
