<?xml version="1.0" encoding="utf-8"?>
<!-- Generator: Adobe Illustrator 25.2.1, SVG Export Plug-In . SVG Version: 6.00 Build 0)  -->
<svg version="1.1" xmlns="http://www.w3.org/2000/svg" xmlns:xlink="http://www.w3.org/1999/xlink" x="0px" y="0px"
	 viewBox="0 0 144.6 117.24" style="enable-background:new 0 0 144.6 117.24;" xml:space="preserve">
<style type="text/css">
	.st0{fill:#1E1E1C;}
</style>
<g id="BACKGROUND">
</g>
<g id="OBJECTS">
	<g>
		<g>
			<path class="st0" d="M25.34,94.59V44.68c0-1.9-1.57-3.42-3.47-3.38c-1.1,0.03-2.08,0.07-2.91,0.12c-1.79,0.1-3.18,1.58-3.18,3.37
				v59.59c0,1.93,1.61,3.47,3.54,3.37c4.76-0.24,13.85-0.34,24.21,1.4c4.01,0.67,5.55-5.03,1.76-6.48
				c-7.39-2.83-13.7-4.17-17.15-4.75C26.52,97.64,25.34,96.23,25.34,94.59z"/>
			<path class="st0" d="M50.19,88.17V35.64c0-1.39-0.86-2.65-2.16-3.15c-5.48-2.14-10.41-3.49-13.68-4.27
				c-2.12-0.5-4.14,1.11-4.14,3.29v59.43c0,1.59,1.1,2.96,2.65,3.3c4.08,0.89,12.35,3.02,21.01,7.12c3.54,1.68,6.59-3.05,3.62-5.62
				c-2.52-2.19-4.69-3.9-5.99-4.91C50.67,90.2,50.19,89.21,50.19,88.17z"/>
			<path class="st0" d="M55.05,25.81v59.24c0,1.04,0.47,2.01,1.28,2.65c3.09,2.43,11.17,9.2,17.39,18.33
				c1.88,2.75,6.17,1.45,6.17-1.88V58.83c0-21.03-12.48-31.57-19.75-35.93C57.9,21.55,55.05,23.19,55.05,25.81z"/>
			<path class="st0" d="M125.55,89.18V44.13c0-1.93,1.61-3.48,3.53-3.37c0.05,0,0.1,0.01,0.14,0.01c1.78,0.1,3.17,1.59,3.17,3.37
				v55.64c0,1.94-1.63,3.49-3.57,3.37c-4.34-0.27-12.17-0.27-20.77,2.02c-3.85,1.02-5.99-4.32-2.49-6.22
				c7.18-3.89,13.79-5.71,17.32-6.48C124.44,92.14,125.55,90.77,125.55,89.18z"/>
			<path class="st0" d="M120.69,26.27v59.7c0,1.4-0.85,2.65-2.16,3.15c-6.01,2.3-23.15,9.46-32.76,19.74
				c-2.11,2.25-5.86,0.8-5.86-2.28V58.83c0-23.73,26.09-33.04,36.54-35.82C118.58,22.44,120.69,24.05,120.69,26.27z"/>
			<path class="st0" d="M86.65,13.73l1.64,3c0.31,0.57,0.78,1.03,1.34,1.34l3,1.64c2.34,1.28,2.34,4.64,0,5.92l-3,1.64
				c-0.57,0.31-1.03,0.78-1.34,1.34l-1.64,3c-1.28,2.34-4.64,2.34-5.92,0l-1.64-3c-0.31-0.57-0.78-1.03-1.34-1.34l-3-1.64
				c-2.34-1.28-2.34-4.64,0-5.92l3-1.64c0.57-0.31,1.03-0.78,1.34-1.34l1.64-3C82,11.39,85.37,11.39,86.65,13.73z"/>
		</g>
	</g>
</g>
</svg>
